<svg width="1409" height="246" viewBox="0 0 1409 246" fill="none" xmlns="http://www.w3.org/2000/svg">
<path d="M505.134 154.795C505.026 163.389 509.323 172.036 521.354 175.742V132.881H537.575V155.332H542.194V131.484H558.522V192.178H542.194V169.082H537.575V191.963H521.354V176.816L514.372 188.74C506.262 186.162 500.729 181.436 497.292 175.42C493.854 182.026 488.215 187.344 479.675 190.244L472.048 177.676C484.509 173.164 488.698 164.141 488.806 154.795V154.688H475.271V141.367H488.806V132.236H505.134V141.367H518.669V154.688H505.134V154.795ZM558.522 195.615V230.635H541.335V209.365H488.806V195.615H558.522ZM607.507 145.234C607.399 156.299 612.341 167.793 629.636 172.52L621.257 186.055C610.246 182.778 602.941 176.602 598.591 168.652C594.079 177.3 586.452 184.175 574.958 187.559L566.472 174.023C584.196 168.76 589.46 156.406 589.567 145.234V135.781H607.507V145.234ZM651.442 194.111V230.635H634.147V207.754H582.37V194.111H651.442ZM651.442 131.27V190.244H634.147V131.27H651.442ZM753.386 184.98V198.623H716.218V230.742H699.138V198.623H662.722V184.98H753.386ZM745.544 135.996V149.209H718.688C720.461 156.836 728.518 165.161 749.733 167.471L743.503 180.898C725.402 178.804 713.962 172.036 708.054 162.852C702.199 172.036 690.866 178.804 672.819 180.898L666.589 167.471C687.536 165.161 695.593 156.836 697.634 149.209H670.671V135.996H745.544ZM789.694 137.607C805.593 137.5 817.731 148.135 817.731 162.637C817.731 177.246 805.593 187.773 789.694 187.666C774.118 187.773 761.657 177.246 761.657 162.637C761.657 148.135 774.118 137.5 789.694 137.607ZM789.694 152.432C783.679 152.432 778.845 155.869 778.845 162.637C778.845 169.619 783.679 172.842 789.694 172.842C796.032 172.842 800.974 169.619 800.974 162.637C800.974 155.869 796.032 152.432 789.694 152.432ZM842.438 131.27V230.957H825.358V131.27H842.438ZM758.112 197.871C775.407 197.871 799.577 197.549 820.31 194.756L821.599 207.109C800.114 211.406 777.019 211.621 760.046 211.621L758.112 197.871ZM891.53 156.191C891.423 170.908 897.224 188.311 914.841 196.26L905.388 209.688C894.592 204.961 887.395 195.991 883.151 185.195C878.801 197.227 871.389 207.163 860.056 212.266L850.173 198.73C868.112 190.459 874.021 172.305 874.021 156.191V154.473H854.362V140.508H910.007V154.473H891.53V156.191ZM932.136 131.27V167.793H945.563V182.08H932.136V230.635H914.841V131.27H932.136Z" fill="#FF6982"/>
<path d="M0 31H1408.5" stroke="url(#paint0_linear_138_1096)" stroke-width="1.5"/>
<path fill-rule="evenodd" clip-rule="evenodd" d="M716.612 0C716.549 16.8538 698.39 30.5019 676 30.5021V30.5026C698.391 30.5028 716.549 44.1511 716.612 61.0051C716.674 44.1509 734.833 30.5026 757.224 30.5026C757.224 30.5026 757.224 30.5026 757.225 30.5026V30.5021H757.224C734.833 30.5021 716.675 16.854 716.612 0Z" fill="#FF6982"/>
<defs>
<linearGradient id="paint0_linear_138_1096" x1="0" y1="31.5" x2="1408.5" y2="31.5" gradientUnits="userSpaceOnUse">
<stop stop-color="#FF6779" stop-opacity="0"/>
<stop offset="0.269" stop-color="#FF6779" stop-opacity="0.75294"/>
<stop offset="0.51" stop-color="#FF6779"/>
<stop offset="0.714" stop-color="#FF6779" stop-opacity="0.685715"/>
<stop offset="1" stop-color="#FF6779" stop-opacity="0"/>
</linearGradient>
</defs>
</svg>
