<svg width="803" height="123" viewBox="0 0 803 123" fill="none" xmlns="http://www.w3.org/2000/svg">
<line x1="802.231" y1="62.6838" x2="91.2883" y2="62.6837" stroke="#2B2B2B" stroke-width="1.5375" stroke-linecap="round" stroke-dasharray="6.65 6.65"/>
<path d="M3.6548 73.9727L14.1402 53.716V53.5212H2.03167V50.4697H17.841V53.6511L7.38799 73.9727H3.6548ZM29.1055 74.2973C23.6518 74.2973 20.4704 69.9148 20.4704 62.2212C20.4704 54.5925 23.7167 50.1451 29.1055 50.1451C34.4943 50.1451 37.7405 54.5925 37.7405 62.2212C37.7405 69.9148 34.5267 74.2973 29.1055 74.2973ZM29.1055 71.2133C32.2868 71.2133 34.1696 68.0969 34.1696 62.2212C34.1696 56.3779 32.2543 53.1641 29.1055 53.1641C25.9566 53.1641 24.0413 56.3779 24.0413 62.2212C24.0413 68.0969 25.9241 71.2133 29.1055 71.2133ZM46.8301 61.6369C43.6163 61.6693 41.8633 59.2671 41.8957 55.7936C41.8633 52.3526 43.6812 49.9828 46.8301 49.9828C50.0438 49.9828 51.7644 52.3526 51.7644 55.7936C51.7644 59.2996 49.9789 61.6693 46.8301 61.6369ZM46.8301 59.3645C48.3558 59.3645 49.07 57.9361 49.07 55.7936C49.07 53.6835 48.3883 52.2552 46.8301 52.2552C45.3368 52.2876 44.5577 53.6835 44.5577 55.7936C44.5577 57.9361 45.3043 59.3645 46.8301 59.3645ZM61.6655 74.4596C58.4517 74.4596 56.6987 72.0898 56.7311 68.6163C56.6987 65.1428 58.549 62.7731 61.6655 62.7731C64.8793 62.7731 66.5998 65.1428 66.5998 68.6163C66.5998 72.0898 64.8143 74.4596 61.6655 74.4596ZM61.6655 72.1548C63.1912 72.1548 63.9054 70.7264 63.9054 68.6163C63.9054 66.4738 63.2237 65.0454 61.6655 65.0454C60.1722 65.0779 59.3931 66.5063 59.3931 68.6163C59.3931 70.7264 60.1722 72.1548 61.6655 72.1548ZM44.5577 73.9727L60.6916 50.4697H63.6457L47.5118 73.9727H44.5577Z" fill="#737373"/>
</svg>
