<svg width="86" height="86" viewBox="0 0 86 86" fill="none" xmlns="http://www.w3.org/2000/svg">
<circle cx="43.0049" cy="43.0049" r="43.0049" fill="#FF6779"/>
<path d="M20.6512 39.1595L45.6356 53.5843L65.6757 42.314C67.3866 41.254 70.4615 38.0517 69.0745 33.7224" stroke="white" stroke-width="4.04801" stroke-linecap="round" stroke-linejoin="round"/>
<path d="M20.1258 49.4891L45.1102 63.9139L65.1503 52.6436C66.8612 51.5836 69.9361 48.3813 68.5492 44.052" stroke="white" stroke-width="4.04801" stroke-linecap="round" stroke-linejoin="round"/>
<path fill-rule="evenodd" clip-rule="evenodd" d="M31.3297 21.3996L19.9301 27.4798C18.615 28.1812 18.5953 29.3539 19.8861 30.0991L43.797 43.9041C45.0878 44.6494 47.2002 44.6849 48.5153 43.9834L70.4689 32.274L53.8693 22.6902C52.2211 24.0222 49.6848 24.1995 47.5362 22.959C47.3114 22.8292 47.0979 22.688 46.8962 22.5368C45.4811 24.8794 42.2055 25.5324 39.5306 23.988C38.6719 23.4922 37.9783 22.8295 37.4761 22.0789C35.8757 22.9002 33.78 22.8657 31.9619 21.816C31.74 21.6879 31.5291 21.5486 31.3297 21.3996Z" fill="white"/>
</svg>
