<svg width="849" height="141" viewBox="0 0 849 141" fill="none" xmlns="http://www.w3.org/2000/svg">
<path d="M101.66 54.22H95.55V80.09H72.93V18.86C72.93 15.22 74.0567 12.49 76.31 10.67C78.5633 8.76333 81.2067 7.81 84.24 7.81C87.1867 7.81 89.7867 8.76333 92.04 10.67C94.38 12.49 95.55 15.22 95.55 18.86V34.2H101.66V18.86C101.66 15.22 102.787 12.49 105.04 10.67C107.293 8.76333 109.937 7.81 112.97 7.81C115.917 7.81 118.56 8.76333 120.9 10.67C123.24 12.49 124.41 15.22 124.41 18.86V80.09H101.66V54.22ZM48.88 37.45V39.01C48.88 40.31 48.8367 41.61 48.75 42.91C48.6633 44.1233 48.5333 45.3367 48.36 46.55C51.9133 47.1567 55.0333 48.24 57.72 49.8C60.4933 51.2733 62.79 53.31 64.61 55.91C66.43 58.51 67.73 61.76 68.51 65.66C69.3767 69.4733 69.6367 73.98 69.29 79.18H47.06C47.7533 75.8 47.6233 72.8533 46.67 70.34C45.7167 67.8267 43.9833 66.0067 41.47 64.88C38.35 69.4733 34.6233 73.1133 30.29 75.8C25.9567 78.4 21.4933 80.0467 16.9 80.74C13.26 81.26 10.4 80.7833 8.32 79.31C6.32667 77.8367 5.11333 75.7133 4.68 72.94C4.24667 69.9067 4.59333 67.48 5.72 65.66C6.93333 63.84 8.84 62.4967 11.44 61.63C13.6067 60.9367 15.5567 60.0267 17.29 58.9C19.0233 57.7733 20.4967 56.3433 21.71 54.61C23.01 52.79 24.0067 50.6233 24.7 48.11C25.3933 45.5967 25.74 42.5633 25.74 39.01V37.45H14.17C11.1367 37.45 8.84 36.41 7.28 34.33C5.80667 32.1633 5.07 29.91 5.07 27.57C5.07 26.4433 5.24333 25.2733 5.59 24.06C5.93667 22.8467 6.45667 21.7633 7.15 20.81C7.84333 19.8567 8.75333 19.0767 9.88 18.47C11.0933 17.8633 12.5233 17.56 14.17 17.56H25.48C26.0867 10.9733 29.9433 7.68 37.05 7.68C40.43 7.68 43.1167 8.50333 45.11 10.15C47.1033 11.7967 48.23 14.2667 48.49 17.56H59.8C61.4467 17.56 62.8333 17.8633 63.96 18.47C65.1733 19.0767 66.1267 19.8567 66.82 20.81C67.5133 21.7633 68.0333 22.8467 68.38 24.06C68.7267 25.2733 68.9 26.4433 68.9 27.57C68.9 29.91 68.12 32.1633 66.56 34.33C65.0867 36.41 62.8333 37.45 59.8 37.45H48.88ZM22.62 105.83C18.98 105.83 16.1633 104.877 14.17 102.97C12.2633 101.063 11.31 98.5933 11.31 95.56C11.31 92.5267 12.2633 90.0567 14.17 88.15C16.1633 86.2433 18.98 85.29 22.62 85.29H105.82C109.893 85.29 113.187 85.5933 115.7 86.2C118.213 86.8067 120.163 87.89 121.55 89.45C122.937 91.01 123.847 93.09 124.28 95.69C124.8 98.2033 125.06 101.41 125.06 105.31V129.88H98.8V108.95C98.8 106.87 97.76 105.83 95.68 105.83H22.62ZM140.4 56.17C147.073 54.1767 152.187 50.45 155.74 44.99C159.38 39.53 161.2 32.1633 161.2 22.89V21.2C161.2 19.12 161.59 17.3433 162.37 15.87C163.15 14.31 164.147 13.0533 165.36 12.1C166.66 11.06 168.09 10.3233 169.65 9.88999C171.297 9.36999 172.987 9.10999 174.72 9.10999C178.1 9.19666 181.047 10.28 183.56 12.36C186.16 14.3533 187.46 17.3 187.46 21.2V22.89C187.46 24.8833 187.373 26.79 187.2 28.61C187.027 30.43 186.81 32.2067 186.55 33.94C191.23 34.5467 195.477 35.8033 199.29 37.71C203.103 39.6167 206.31 42.26 208.91 45.64C211.597 48.9333 213.59 53.0067 214.89 57.86C216.19 62.7133 216.71 68.39 216.45 74.89H191.1C191.533 68.8233 190.84 64.0133 189.02 60.46C187.2 56.9067 184.167 54.6967 179.92 53.83C176.02 60.6767 171.167 66.05 165.36 69.95C159.553 73.85 153.573 76.19 147.42 76.97C145.687 77.1433 144.083 77.0567 142.61 76.71C141.137 76.3633 139.837 75.8433 138.71 75.15C137.583 74.4567 136.63 73.59 135.85 72.55C135.07 71.51 134.55 70.4267 134.29 69.3C133.423 66.3533 133.553 63.6233 134.68 61.11C135.893 58.5967 137.8 56.95 140.4 56.17ZM153.27 103.75C149.63 103.75 146.813 102.797 144.82 100.89C142.913 98.9833 141.96 96.5133 141.96 93.48C141.96 90.4467 142.913 87.9767 144.82 86.07C146.813 84.1633 149.63 83.21 153.27 83.21H233.74C237.813 83.21 241.107 83.5133 243.62 84.12C246.133 84.7267 248.083 85.81 249.47 87.37C250.857 88.93 251.767 91.01 252.2 93.61C252.72 96.1233 252.98 99.33 252.98 103.23V129.88H226.72V106.87C226.72 104.79 225.68 103.75 223.6 103.75H153.27ZM226.07 20.68C226.07 16.4333 227.37 13.2267 229.97 11.06C232.657 8.89333 235.733 7.81 239.2 7.81C240.847 7.81 242.45 8.11333 244.01 8.71999C245.657 9.24 247.087 10.0633 248.3 11.19C249.513 12.23 250.467 13.5733 251.16 15.22C251.94 16.78 252.33 18.6 252.33 20.68V78.14H226.07V20.68ZM338 31.99C337.74 34.33 337.35 36.4533 336.83 38.36H338.13C343.503 38.2733 348.79 38.9667 353.99 40.44C359.19 41.9133 363.87 44.2533 368.03 47.46C372.19 50.58 375.613 54.5667 378.3 59.42C380.987 64.2733 382.547 70.08 382.98 76.84H357.37C356.763 73.5467 355.593 70.6433 353.86 68.13C352.213 65.6167 350.09 63.58 347.49 62.02C344.977 60.3733 342.073 59.16 338.78 58.38C335.487 57.6 332.02 57.2533 328.38 57.34C327.947 57.34 327.513 57.3833 327.08 57.47C326.647 57.47 326.17 57.5133 325.65 57.6C322.79 60.5467 319.54 63.19 315.9 65.53C312.347 67.7833 308.62 69.7333 304.72 71.38C300.82 72.94 296.79 74.1967 292.63 75.15C288.557 76.0167 284.527 76.58 280.54 76.84C276.9 77.1 273.78 76.3633 271.18 74.63C268.667 72.81 267.193 70.3833 266.76 67.35C266.327 64.49 266.89 61.9333 268.45 59.68C270.01 57.34 272.393 55.9533 275.6 55.52C280.107 55 284.353 54.1333 288.34 52.92C292.327 51.7067 295.88 50.1467 299 48.24C302.207 46.3333 304.85 44.0367 306.93 41.35C309.01 38.6633 310.397 35.5433 311.09 31.99H280.02C276.12 31.99 273.303 30.9067 271.57 28.74C269.923 26.4867 269.1 24.0167 269.1 21.33C269.1 20.03 269.273 18.7733 269.62 17.56C270.053 16.26 270.703 15.09 271.57 14.05C272.437 13.01 273.563 12.1867 274.95 11.58C276.337 10.9733 278.027 10.67 280.02 10.67H369.98C371.973 10.67 373.663 10.9733 375.05 11.58C376.437 12.1867 377.563 13.01 378.43 14.05C379.297 15.09 379.903 16.26 380.25 17.56C380.683 18.7733 380.9 20.03 380.9 21.33C380.9 24.0167 380.033 26.4867 378.3 28.74C376.653 30.9067 373.88 31.99 369.98 31.99H338ZM338.26 102.71V130.53H311.74V102.71H275.08C271.18 102.71 268.363 101.627 266.63 99.46C264.983 97.2933 264.16 94.8667 264.16 92.18C264.16 90.88 264.333 89.6233 264.68 88.41C265.113 87.11 265.763 85.94 266.63 84.9C267.497 83.86 268.623 83.0367 270.01 82.43C271.397 81.8233 273.087 81.52 275.08 81.52H374.92C376.913 81.52 378.603 81.8233 379.99 82.43C381.377 83.0367 382.503 83.86 383.37 84.9C384.237 85.94 384.843 87.11 385.19 88.41C385.623 89.6233 385.84 90.88 385.84 92.18C385.84 94.8667 384.973 97.2933 383.24 99.46C381.593 101.627 378.82 102.71 374.92 102.71H338.26ZM470.73 103.23C472.723 103.23 474.413 103.533 475.8 104.14C477.187 104.747 478.313 105.57 479.18 106.61C480.047 107.65 480.653 108.82 481 110.12C481.433 111.42 481.65 112.72 481.65 114.02C481.65 115.407 481.433 116.75 481 118.05C480.653 119.35 480.003 120.477 479.05 121.43C478.183 122.47 477.057 123.293 475.67 123.9C474.283 124.507 472.637 124.81 470.73 124.81H405.34C401.44 124.81 398.623 123.683 396.89 121.43C395.157 119.263 394.29 116.793 394.29 114.02C394.29 112.72 394.463 111.42 394.81 110.12C395.243 108.82 395.893 107.65 396.76 106.61C397.713 105.57 398.883 104.747 400.27 104.14C401.657 103.533 403.347 103.23 405.34 103.23H470.73ZM397.41 42.91C397.41 37.2767 398.363 32.38 400.27 28.22C402.263 24.06 404.95 20.6367 408.33 17.95C411.797 15.2633 415.827 13.27 420.42 11.97C425.013 10.67 429.997 10.02 435.37 10.02C440.657 10.02 445.597 10.67 450.19 11.97C454.87 13.27 458.9 15.2633 462.28 17.95C465.66 20.6367 468.303 24.06 470.21 28.22C472.203 32.38 473.2 37.2767 473.2 42.91V55.39C473.2 61.0233 472.203 65.92 470.21 70.08C468.303 74.24 465.66 77.6633 462.28 80.35C458.9 83.0367 454.87 85.03 450.19 86.33C445.597 87.63 440.657 88.28 435.37 88.28C429.997 88.28 425.013 87.63 420.42 86.33C415.827 85.03 411.797 83.0367 408.33 80.35C404.95 77.6633 402.263 74.24 400.27 70.08C398.363 65.92 397.41 61.0233 397.41 55.39V42.91ZM422.89 56.3C422.89 58.38 423.237 60.1567 423.93 61.63C424.623 63.1033 425.533 64.3167 426.66 65.27C427.873 66.1367 429.217 66.7867 430.69 67.22C432.25 67.6533 433.81 67.87 435.37 67.87C436.93 67.87 438.447 67.6533 439.92 67.22C441.393 66.7867 442.693 66.1367 443.82 65.27C445.033 64.3167 445.987 63.1033 446.68 61.63C447.46 60.1567 447.85 58.38 447.85 56.3V42C447.85 39.92 447.46 38.1433 446.68 36.67C445.987 35.1967 445.033 34.0267 443.82 33.16C442.693 32.2067 441.393 31.5133 439.92 31.08C438.447 30.6467 436.93 30.43 435.37 30.43C433.81 30.43 432.25 30.6467 430.69 31.08C429.217 31.5133 427.873 32.2067 426.66 33.16C425.533 34.0267 424.623 35.1967 423.93 36.67C423.237 38.1433 422.89 39.92 422.89 42V56.3ZM486.33 129.88V20.68C486.33 16.4333 487.63 13.2267 490.23 11.06C492.83 8.89333 495.863 7.81 499.33 7.81C502.797 7.81 505.83 8.89333 508.43 11.06C511.03 13.2267 512.33 16.4333 512.33 20.68V129.88H486.33ZM549.9 34.98H533.26C531.267 34.98 529.577 34.6767 528.19 34.07C526.89 33.3767 525.763 32.51 524.81 31.47C523.943 30.43 523.293 29.26 522.86 27.96C522.513 26.5733 522.34 25.23 522.34 23.93C522.34 22.63 522.513 21.33 522.86 20.03C523.293 18.6433 523.943 17.43 524.81 16.39C525.677 15.35 526.803 14.4833 528.19 13.79C529.577 13.0967 531.267 12.75 533.26 12.75H592.02C594.013 12.75 595.66 13.0967 596.96 13.79C598.347 14.4833 599.473 15.35 600.34 16.39C601.207 17.43 601.813 18.6433 602.16 20.03C602.507 21.33 602.68 22.63 602.68 23.93C602.68 25.23 602.463 26.5733 602.03 27.96C601.683 29.26 601.077 30.43 600.21 31.47C599.43 32.51 598.347 33.3767 596.96 34.07C595.573 34.6767 593.927 34.98 592.02 34.98H575.12V49.02C575.12 52.0533 575.033 54.9567 574.86 57.73C574.687 60.5033 574.427 63.19 574.08 65.79C578.76 67.4367 582.963 69.6467 586.69 72.42C590.417 75.1933 593.537 78.8333 596.05 83.34C598.563 87.76 600.383 93.1767 601.51 99.59C602.723 106.003 603.157 113.673 602.81 122.6H578.5C579.28 113.933 578.803 106.87 577.07 101.41C575.423 95.95 572.65 91.79 568.75 88.93C565.717 97.1633 561.687 104.097 556.66 109.73C551.633 115.363 545.74 119.567 538.98 122.34C537.593 122.947 536.077 123.25 534.43 123.25C532.87 123.337 531.31 123.163 529.75 122.73C528.277 122.383 526.89 121.777 525.59 120.91C524.377 120.13 523.467 119.09 522.86 117.79C521.56 115.363 521.213 112.807 521.82 110.12C522.513 107.433 524.16 105.267 526.76 103.62C530.833 101.107 534.3 98.16 537.16 94.78C540.107 91.4 542.533 87.5 544.44 83.08C546.347 78.5733 547.733 73.46 548.6 67.74C549.467 62.02 549.9 55.5633 549.9 48.37V34.98ZM612.82 20.42C612.82 16.26 614.12 13.14 616.72 11.06C619.32 8.89333 622.31 7.81 625.69 7.81C627.337 7.81 628.94 8.11333 630.5 8.71999C632.06 9.24 633.403 10.02 634.53 11.06C635.743 12.1 636.697 13.4 637.39 14.96C638.17 16.52 638.56 18.34 638.56 20.42V53.31H642.85C644.843 53.31 646.49 53.6567 647.79 54.35C649.09 55.0433 650.13 55.9533 650.91 57.08C651.69 58.12 652.253 59.3333 652.6 60.72C652.947 62.02 653.12 63.32 653.12 64.62C653.12 65.92 652.947 67.2633 652.6 68.65C652.253 69.95 651.69 71.1633 650.91 72.29C650.13 73.33 649.047 74.1967 647.66 74.89C646.36 75.5833 644.757 75.93 642.85 75.93H638.56V129.88H612.82V20.42Z" fill="#FF6982"/>
<circle cx="778.18" cy="70.1797" r="70.1797" fill="#FF6779"/>
<path d="M741.703 63.9036L782.475 87.4434L815.179 69.0515C817.971 67.3216 822.989 62.0958 820.725 55.0309" stroke="white" stroke-width="6.60595" stroke-linecap="round" stroke-linejoin="round"/>
<path d="M740.848 80.7606L781.62 104.3L814.323 85.9084C817.115 84.1786 822.133 78.9527 819.87 71.8878" stroke="white" stroke-width="6.60595" stroke-linecap="round" stroke-linejoin="round"/>
<path fill-rule="evenodd" clip-rule="evenodd" d="M759.127 34.9236L740.528 44.8435C738.382 45.9882 738.35 47.9019 740.456 49.1181L779.477 71.6465C781.583 72.8626 785.03 72.9205 787.177 71.7759L823.003 52.6673L795.912 37.0265C793.222 39.2015 789.082 39.4915 785.575 37.4666C785.208 37.2543 784.859 37.0234 784.529 36.776C782.22 40.5999 776.874 41.6661 772.508 39.1456C771.107 38.3365 769.975 37.255 769.155 36.0301C766.544 37.3706 763.123 37.3144 760.156 35.6012C759.795 35.3927 759.452 35.1661 759.127 34.9236Z" fill="white"/>
</svg>
