<svg width="2434" height="693" viewBox="0 0 2434 693" fill="none" xmlns="http://www.w3.org/2000/svg">
<path d="M1323 341.617C1287.81 347.655 1258.94 376.087 1247.94 391.015C1247.73 391.303 1247.49 391.55 1247.21 391.769L1152.86 465.106C1151.32 466.305 1150.94 468.478 1151.98 470.132L1212.7 566.504C1213.43 567.658 1214.75 568.335 1216.12 568.261C1306.73 563.361 1331.96 503.178 1311.68 444.865C1297.43 403.93 1313.15 366.743 1326.45 347.791C1328.4 345.018 1326.34 341.044 1323 341.617Z" fill="#EB7033"/>
<path d="M1322.97 341.701C1304.73 340.092 1275.2 362.491 1262.72 373.891C1250.09 370.687 1229.21 370.203 1246.74 393.898C1264.27 417.593 1293.91 417.556 1306.42 414.352C1305.59 410.044 1309.49 373.265 1321.07 358.579C1333.91 342.289 1328.45 341.534 1322.97 341.701Z" fill="#431600"/>
<path d="M1004.2 547.694C1011.98 535.265 1040.13 498.106 1042.73 474.597L1066.45 468.449L1037.28 591.955C990.673 605.144 994.473 563.23 1004.2 547.694Z" fill="#FF8548"/>
<path d="M1219.22 547.694C1211.44 535.265 1183.29 498.106 1180.68 474.597L1156.96 468.449L1186.13 591.955C1232.74 605.144 1228.94 563.23 1219.22 547.694Z" fill="#FF8548"/>
<path d="M1030.47 573.403C1025.04 551.96 1034.01 523.501 1036.33 511.768C1036.35 511.663 1036.44 511.594 1036.55 511.594H1041.87C1041.93 511.594 1041.98 511.613 1042.02 511.651C1066.17 533.843 1106.78 581.26 1099.99 593.857C1091.49 609.616 1093.95 624.593 1099.99 651.418C1106.02 678.243 1063.33 678.355 1048.35 677.908C1033.37 677.461 1018.06 673.996 1018.96 654.436C1019.85 634.876 1034.71 632.306 1038.96 624.593C1043.21 616.881 1037.29 600.339 1030.47 573.403Z" fill="#FF8548"/>
<path d="M1221.44 189.877C1180.61 210.245 1146.62 252.991 1128.86 281.198C1124.48 288.141 1127.46 297.136 1134.88 300.632L1231.34 346.06C1237.75 349.078 1245.51 346.99 1248.63 340.627C1272.21 292.504 1253.92 227.62 1237.91 195.387C1234.86 189.259 1227.57 186.823 1221.44 189.877Z" fill="#EB7033"/>
<path d="M993.486 189.767C1034.35 210.15 1068.37 252.946 1086.11 281.152C1090.47 288.072 1087.53 297.037 1080.15 300.559L984.98 345.976C978.561 349.04 970.758 346.961 967.618 340.578C943.945 292.455 961.258 227.538 977.057 195.294C980.068 189.15 987.363 186.713 993.486 189.767Z" fill="#EB7033"/>
<path d="M1190.97 573.403C1196.39 551.96 1188.82 523.501 1186.51 511.768C1186.49 511.663 1186.39 511.594 1186.29 511.594H1182.65C1182.59 511.594 1182.54 511.613 1182.5 511.651C1158.34 533.843 1114.66 581.26 1121.44 593.857C1129.94 609.616 1127.48 624.593 1121.44 651.418C1115.41 678.243 1158.11 678.355 1173.08 677.908C1188.06 677.461 1203.37 673.996 1202.48 654.436C1201.58 634.876 1186.72 632.306 1182.47 624.593C1178.22 616.881 1184.15 600.339 1190.97 573.403Z" fill="#FF8548"/>
<path d="M1188.59 532.269C1188.59 582.332 1155.16 622.244 1110.71 622.244C1066.27 622.244 1034.57 582.332 1034.57 532.269C1034.57 482.207 1066.27 440.953 1110.71 440.953C1155.16 440.953 1188.59 482.207 1188.59 532.269Z" fill="#FF8548"/>
<path d="M1264.96 393.897C1264.96 454.515 1195.95 480.407 1110.83 480.407C1025.7 480.407 956.695 454.515 956.695 393.897C956.695 333.279 1025.7 269.05 1110.83 269.05C1195.95 269.05 1264.96 333.279 1264.96 393.897Z" fill="#FF8548"/>
<path d="M1258.03 263.575C1228.68 227.755 1208.19 221.809 1165.15 233.955C1168.31 228.992 1218.09 171.904 1235.34 191.483C1248.91 206.888 1256.17 245.971 1258.03 263.575Z" fill="#431600"/>
<path d="M956.697 263.575C986.042 227.755 1006.53 221.809 1049.58 233.955C1046.41 228.992 996.632 171.904 979.386 191.483C965.818 206.888 958.561 245.971 956.697 263.575Z" fill="#431600"/>
<path d="M1111.23 583.573C1045.61 583.573 1050.88 507.182 1062.89 473.367H1159.57C1169.7 513.022 1175.97 583.573 1111.23 583.573Z" fill="#FFDDCC"/>
<path d="M1029.46 470.461C1023.38 443.1 1045.93 416.327 1057.96 407.87C1100.43 380.598 1134.63 389.539 1161.24 407.87C1182.52 422.534 1189.07 457.496 1189.29 471.244C1147.95 484.947 1068.93 482.435 1029.46 470.461Z" fill="#FFDDCC"/>
<path d="M1127.7 411.207C1127.7 418.58 1119.35 421.73 1109.04 421.73C1098.73 421.73 1090.37 418.58 1090.37 411.207C1090.37 403.835 1098.73 396.022 1109.04 396.022C1119.35 396.022 1127.7 403.835 1127.7 411.207Z" fill="#431600"/>
<ellipse cx="1055.05" cy="365.062" rx="8.49453" ry="9.724" fill="#431600"/>
<ellipse cx="1166.6" cy="365.062" rx="8.49453" ry="9.724" fill="#431600"/>
<path d="M1120.75 519.081C1111.71 519.83 1061.9 489.24 1042.51 473.814C1053.69 476.72 1084.76 480.632 1108.64 480.632C1134.76 480.632 1158.78 479.135 1168.15 475.904C1169.23 475.366 1170.27 474.96 1171.27 474.672C1179.03 471.918 1198.33 459.013 1208.6 464.893C1219.29 471.017 1210.84 483.707 1205.27 489.287C1205.07 487.737 1203.29 482.706 1201.33 477.332C1198.15 471.465 1188 472.899 1179.36 475.038C1186.8 478.241 1190.73 489.246 1191.81 497.107C1191.49 496.032 1188.83 493.709 1180.72 493.013C1160.09 492.061 1158.55 486.244 1161.14 481.731C1148.02 494.117 1129.63 518.345 1120.75 519.081Z" fill="#C72B2B"/>
<path d="M1785.92 258.32C1747.48 277.494 1715.48 317.732 1698.76 344.284C1694.64 350.82 1697.45 359.288 1704.43 362.579L1795.23 405.342C1801.26 408.184 1808.57 406.218 1811.51 400.229C1833.7 354.927 1816.49 293.849 1801.41 263.507C1798.55 257.739 1791.68 255.446 1785.92 258.32Z" fill="#EB7033"/>
<path d="M1571.33 258.216C1609.8 277.404 1641.82 317.689 1658.53 344.241C1662.63 350.755 1659.86 359.194 1652.91 362.509L1563.32 405.263C1557.28 408.147 1549.94 406.19 1546.98 400.182C1524.7 354.881 1540.99 293.771 1555.87 263.419C1558.7 257.635 1565.57 255.341 1571.33 258.216Z" fill="#EB7033"/>
<path d="M1826.88 450.374C1826.88 507.437 1761.92 531.81 1681.79 531.81C1601.66 531.81 1536.7 507.437 1536.7 450.374C1536.7 393.312 1601.66 332.85 1681.79 332.85C1761.92 332.85 1826.88 393.312 1826.88 450.374Z" fill="#FF8548"/>
<path d="M1820.36 327.694C1792.73 293.976 1773.44 288.378 1732.92 299.812C1735.9 295.14 1782.76 241.4 1799 259.831C1811.77 274.332 1818.6 311.124 1820.36 327.694Z" fill="#431600"/>
<path d="M1536.7 327.694C1564.32 293.976 1583.61 288.378 1624.13 299.812C1621.15 295.14 1574.29 241.4 1558.06 259.831C1545.29 274.332 1538.45 311.124 1536.7 327.694Z" fill="#431600"/>
<path d="M1605.2 522.447C1599.47 496.691 1620.7 471.488 1632.03 463.527C1672.01 437.855 1704.2 446.272 1729.24 463.527C1749.28 477.331 1755.44 510.243 1755.65 523.184C1716.74 536.084 1642.35 533.719 1605.2 522.447Z" fill="#FFDDCC"/>
<path d="M1697.68 466.668C1697.68 473.609 1689.81 476.573 1680.11 476.573C1670.4 476.573 1662.54 473.609 1662.54 466.668C1662.54 459.728 1670.4 452.374 1680.11 452.374C1689.81 452.374 1697.68 459.728 1697.68 466.668Z" fill="#431600"/>
<ellipse cx="1629.29" cy="423.231" rx="7.99631" ry="9.15367" fill="#431600"/>
<ellipse cx="1735.77" cy="423.455" rx="12.7359" ry="14.5793" fill="#431600"/>
<path d="M1660.52 398.456C1661.77 399.903 1663.7 403.087 1664.57 405.113" stroke="#D56A34" stroke-width="6.94687" stroke-linecap="round"/>
<path d="M1694.09 398.456C1692.84 399.903 1690.91 403.087 1690.04 405.113" stroke="#D56A34" stroke-width="6.94687" stroke-linecap="round"/>
<g opacity="0.55">
<path d="M1694.22 410.885L1731.16 380.047L1761.36 395.847L1699.71 439.683L1694.22 410.885Z" fill="white"/>
<rect x="1708.76" y="451.267" width="77.8994" height="11.8408" transform="rotate(-35.3196 1708.76 451.267)" fill="white"/>
</g>
<circle cx="1736.48" cy="424.632" r="41.8932" transform="rotate(-25.9468 1736.48 424.632)" stroke="#316322" stroke-width="16.8737"/>
<rect x="1744.52" y="463.102" width="18.6192" height="55.8577" transform="rotate(-25.9468 1744.52 463.102)" fill="#316322"/>
<path d="M1522.55 343.791C1523.02 344.064 1523.1 344.722 1522.7 345.096C1515.55 351.798 1512.91 357.274 1510.87 370.094C1510.75 370.908 1509.6 371.041 1509.29 370.277C1504.39 358.257 1500.57 353.527 1492.08 348.63C1491.6 348.357 1491.53 347.699 1491.93 347.325C1499.08 340.62 1501.72 335.146 1503.75 322.326C1503.88 321.512 1505.03 321.379 1505.34 322.143C1510.24 334.163 1514.06 338.892 1522.55 343.791Z" fill="#FFDC2E"/>
<path d="M1529.51 307.718C1529.79 307.881 1529.84 308.275 1529.6 308.499C1525.32 312.508 1523.74 315.783 1522.53 323.452C1522.45 323.939 1521.76 324.018 1521.57 323.562C1518.65 316.371 1516.36 313.542 1511.28 310.612C1511 310.449 1510.95 310.055 1511.19 309.832C1515.47 305.821 1517.05 302.547 1518.26 294.878C1518.34 294.391 1519.03 294.311 1519.22 294.768C1522.15 301.958 1524.43 304.787 1529.51 307.718Z" fill="#FFDC2E"/>
<path d="M1803.54 503.769C1807.72 507.856 1820.67 511.942 1826.62 513.474C1829.2 514.177 1844.87 520.357 1845.31 530.522C1845.76 540.686 1835.98 551.959 1817.61 555.741C1807.49 557.826 1765.41 555.374 1751.46 531.63C1737.51 507.886 1749.7 491.793 1769.1 486.827C1788.49 481.861 1798.31 498.661 1803.54 503.769Z" fill="#FF8548"/>
<path d="M1754.58 493.107L1753.18 491.261L1753.09 491.336L1753 491.422L1754.58 493.107ZM1750.22 494.204C1749.39 495.174 1749.5 496.636 1750.47 497.469C1751.44 498.302 1752.9 498.19 1753.74 497.22L1750.22 494.204ZM1805.28 498.571C1801.47 494.002 1794.4 487.773 1785.28 484.865C1776.03 481.913 1764.82 482.447 1753.18 491.261L1755.98 494.952C1766.35 487.094 1775.98 486.759 1783.87 489.278C1791.91 491.841 1798.29 497.421 1801.72 501.536L1805.28 498.571ZM1753 491.422C1751.99 492.372 1751.2 493.068 1750.22 494.204L1753.74 497.22C1754.51 496.32 1755.06 495.837 1756.17 494.791L1753 491.422Z" fill="#EF7436"/>
<path d="M759.542 269.409C721.516 288.375 689.863 328.18 673.325 354.446C669.254 360.911 672.025 369.288 678.937 372.544L768.756 414.845C774.724 417.657 781.954 415.712 784.857 409.787C806.813 364.974 789.783 304.554 774.871 274.54C772.036 268.833 765.244 266.565 759.542 269.409Z" fill="#EB7033"/>
<path d="M547.266 269.304C585.322 288.285 616.994 328.136 633.522 354.402C637.577 360.846 634.839 369.194 627.968 372.473L539.346 414.766C533.368 417.619 526.102 415.683 523.178 409.739C501.134 364.927 517.256 304.476 531.968 274.451C534.771 268.73 541.564 266.46 547.266 269.304Z" fill="#EB7033"/>
<path d="M800.057 459.39C800.057 515.838 735.798 539.949 656.531 539.949C577.263 539.949 513.004 515.838 513.004 459.39C513.004 402.943 577.263 343.133 656.531 343.133C735.798 343.133 800.057 402.943 800.057 459.39Z" fill="#FF8548"/>
<path d="M793.606 338.035C766.28 304.679 747.199 299.142 707.115 310.453C710.061 305.831 756.419 252.671 772.478 270.903C785.113 285.248 791.87 321.643 793.606 338.035Z" fill="#431600"/>
<path d="M513.007 338.035C540.334 304.679 559.414 299.142 599.498 310.453C596.552 305.831 550.194 252.671 534.136 270.903C521.5 285.248 514.743 321.643 513.007 338.035Z" fill="#431600"/>
<path d="M580.762 530.686C575.1 505.207 596.096 480.276 607.302 472.401C646.852 447.005 678.701 455.332 703.472 472.401C723.289 486.056 729.388 518.613 729.596 531.414C691.098 544.175 617.517 541.836 580.762 530.686Z" fill="#FFDDCC"/>
<path d="M672.247 475.51C672.247 482.376 664.465 485.309 654.866 485.309C645.266 485.309 637.484 482.376 637.484 475.51C637.484 468.645 645.266 461.37 654.866 461.37C664.465 461.37 672.247 468.645 672.247 475.51Z" fill="#431600"/>
<path d="M586.333 518.738C581.584 523.377 566.886 528.016 560.13 529.755C557.206 530.553 539.419 537.569 538.915 549.107C538.41 560.645 549.514 573.442 570.36 577.736C581.847 580.102 629.623 577.319 645.458 550.365C661.293 523.412 647.449 505.143 625.432 499.506C603.414 493.869 592.268 512.939 586.333 518.738Z" fill="#FF8548"/>
<ellipse cx="604.598" cy="432.538" rx="7.9101" ry="9.05498" fill="#431600"/>
<ellipse cx="708.471" cy="432.538" rx="7.9101" ry="9.05498" fill="#431600"/>
<path d="M562.466 464.725L553.59 473.601" stroke="#EC4B4B" stroke-width="6.87197" stroke-linecap="round"/>
<path d="M577.07 464.725L568.193 473.601" stroke="#EC4B4B" stroke-width="6.87197" stroke-linecap="round"/>
<path d="M742.284 464.725L733.408 473.601" stroke="#EC4B4B" stroke-width="6.87197" stroke-linecap="round"/>
<path d="M756.888 464.725L748.012 473.601" stroke="#EC4B4B" stroke-width="6.87197" stroke-linecap="round"/>
<path d="M568.931 523.345C567.725 523.73 567.06 525.018 567.445 526.224C567.829 527.429 569.118 528.094 570.323 527.709L568.931 523.345ZM570.323 527.709C572.579 526.99 576.841 525.792 581.527 523.463L579.488 519.361C575.189 521.497 571.322 522.582 568.931 523.345L570.323 527.709Z" fill="#EF7436"/>
<path d="M335.911 517.368C336.182 517.569 336.182 517.978 335.911 518.18C331.045 521.788 329.035 524.962 326.88 532.688C326.743 533.179 326.029 533.179 325.892 532.688C323.737 524.962 321.726 521.788 316.861 518.18C316.59 517.978 316.59 517.569 316.861 517.368C321.727 513.758 323.737 510.585 325.892 502.859C326.029 502.368 326.743 502.368 326.88 502.859C329.036 510.585 331.045 513.758 335.911 517.368Z" fill="white"/>
<path d="M355.918 381.729C356.19 381.93 356.19 382.34 355.918 382.541C351.053 386.149 349.043 389.323 346.888 397.05C346.751 397.54 346.036 397.54 345.9 397.05C343.745 389.323 341.734 386.149 336.869 382.541C336.598 382.34 336.598 381.93 336.869 381.729C341.734 378.12 343.745 374.947 345.9 367.22C346.037 366.729 346.751 366.729 346.888 367.22C349.044 374.947 351.053 378.12 355.918 381.729Z" fill="white"/>
<path d="M156.354 292.786C156.626 292.987 156.625 293.396 156.354 293.598C151.489 297.206 149.479 300.38 147.324 308.106C147.187 308.597 146.472 308.597 146.335 308.106C144.18 300.38 142.17 297.206 137.305 293.598C137.033 293.396 137.033 292.987 137.305 292.786C142.17 289.176 144.18 286.003 146.335 278.277C146.472 277.786 147.187 277.786 147.324 278.277C149.48 286.003 151.489 289.176 156.354 292.786Z" fill="white"/>
<path d="M19.6059 440.098C19.8775 440.3 19.8774 440.709 19.6059 440.91C14.7408 444.518 12.7305 447.693 10.5755 455.419C10.4386 455.909 9.72399 455.909 9.5871 455.419C7.43211 447.693 5.42178 444.518 0.556709 440.91C0.285156 440.709 0.285116 440.3 0.556635 440.098C5.42189 436.489 7.43221 433.316 9.58727 425.589C9.72415 425.098 10.4386 425.098 10.5756 425.589C12.7317 433.316 14.7408 436.489 19.6059 440.098Z" fill="white"/>
<path d="M279.401 270.843C242.488 289.254 211.762 327.893 195.708 353.39C191.756 359.666 194.446 367.798 201.156 370.958L288.344 412.021C294.138 414.749 301.156 412.862 303.974 407.11C325.288 363.61 308.756 304.959 294.281 275.824C291.529 270.285 284.936 268.083 279.401 270.843Z" fill="#EB7033"/>
<path d="M73.3431 270.742C110.285 289.167 141.029 327.851 157.073 353.347C161.009 359.602 158.351 367.706 151.681 370.889L65.6547 411.944C59.852 414.713 52.799 412.833 49.9608 407.064C28.5616 363.564 44.2115 304.883 58.4926 275.738C61.2141 270.184 67.8083 267.981 73.3431 270.742Z" fill="#EB7033"/>
<path d="M318.731 455.261C318.731 510.055 256.353 533.46 179.407 533.46C102.461 533.46 40.084 510.055 40.084 455.261C40.084 400.467 102.461 342.408 179.407 342.408C256.353 342.408 318.731 400.467 318.731 455.261Z" fill="#FF8548"/>
<path d="M312.467 337.459C285.941 305.081 267.42 299.706 228.51 310.686C231.369 306.199 276.369 254.596 291.958 272.294C304.223 286.219 310.783 321.547 312.467 337.459Z" fill="#431600"/>
<path d="M40.0814 337.459C66.6074 305.081 85.1291 299.706 124.039 310.686C121.179 306.199 76.1794 254.596 60.5909 272.294C48.3257 286.219 41.766 321.547 40.0814 337.459Z" fill="#431600"/>
<path d="M105.857 524.469C100.361 499.736 120.742 475.536 131.62 467.891C170.012 443.239 200.928 451.322 224.974 467.891C244.21 481.146 250.131 512.749 250.333 525.176C212.962 537.563 141.535 535.293 105.857 524.469Z" fill="#FFDDCC"/>
<path d="M194.665 470.907C194.665 477.571 187.111 480.418 177.792 480.418C168.474 480.418 160.92 477.571 160.92 470.907C160.92 464.242 168.474 457.181 177.792 457.181C187.111 457.181 194.665 464.242 194.665 470.907Z" fill="#431600"/>
<ellipse cx="128.995" cy="429.195" rx="7.67844" ry="8.78979" fill="#431600"/>
<ellipse cx="229.825" cy="429.195" rx="7.67844" ry="8.78979" fill="#431600"/>
<path d="M247.404 513.427C252.014 517.93 266.282 522.433 272.84 524.121C275.678 524.895 292.944 531.706 293.433 542.907C293.923 554.107 283.145 566.529 262.909 570.697C251.758 572.994 205.381 570.292 190.01 544.128C174.639 517.964 188.078 500.23 209.45 494.758C230.823 489.286 241.642 507.798 247.404 513.427Z" fill="#FF8548"/>
<path d="M111.82 513.427C107.211 517.93 92.9429 522.433 86.3851 524.121C83.5468 524.895 66.2805 531.706 65.7911 542.907C65.3017 554.107 76.0796 566.529 96.3158 570.697C107.466 572.994 153.843 570.292 169.214 544.128C184.585 517.964 171.147 500.23 149.774 494.758C128.402 489.286 117.582 507.798 111.82 513.427Z" fill="#FF8548"/>
<path d="M128.663 441.262C134.59 441.262 139.209 435.802 139.209 429.31C139.209 422.819 134.59 417.359 128.663 417.359C122.737 417.359 118.117 422.819 118.117 429.31C118.117 435.802 122.737 441.262 128.663 441.262Z" fill="white" stroke="#431600" stroke-width="1.66768"/>
<path fill-rule="evenodd" clip-rule="evenodd" d="M128.663 426.498C131.78 426.498 134.555 424.817 136.332 422.204C137.771 424.16 138.639 426.685 138.639 429.441C138.639 432.198 137.771 434.723 136.331 436.68C134.554 434.067 131.78 432.387 128.663 432.387C125.621 432.387 122.906 433.988 121.125 436.494C119.765 434.565 118.951 432.112 118.951 429.441C118.951 426.772 119.765 424.319 121.124 422.39C122.905 424.897 125.621 426.498 128.663 426.498Z" fill="#431600"/>
<path d="M229.284 441.262C235.211 441.262 239.83 435.802 239.83 429.31C239.83 422.819 235.211 417.359 229.284 417.359C223.358 417.359 218.738 422.819 218.738 429.31C218.738 435.802 223.358 441.262 229.284 441.262Z" fill="white" stroke="#431600" stroke-width="1.66768"/>
<path fill-rule="evenodd" clip-rule="evenodd" d="M229.283 426.497C232.4 426.497 235.174 424.816 236.951 422.203C238.391 424.159 239.258 426.684 239.258 429.44C239.258 432.197 238.39 434.722 236.95 436.679C235.173 434.066 232.399 432.386 229.282 432.386C226.24 432.386 223.525 433.987 221.744 436.493C220.384 434.563 219.57 432.11 219.57 429.44C219.57 426.771 220.384 424.318 221.743 422.389C223.524 424.896 226.24 426.497 229.283 426.497Z" fill="#431600"/>
<path d="M93.8239 517.349C92.654 517.722 92.0083 518.973 92.3817 520.143C92.7551 521.313 94.0061 521.959 95.1761 521.586L93.8239 517.349ZM95.1761 521.586C95.9175 521.349 96.791 520.937 97.6091 520.537C98.4898 520.107 99.3679 519.659 100.318 519.214C102.294 518.289 103.952 517.696 105.062 517.696V513.249C102.837 513.249 100.341 514.293 98.4335 515.186C97.4424 515.65 96.4464 516.156 95.6564 516.542C94.8039 516.958 94.2102 517.226 93.8239 517.349L95.1761 521.586Z" fill="#EF7436"/>
<path d="M261.391 517.349C262.561 517.722 263.207 518.973 262.833 520.143C262.46 521.313 261.209 521.959 260.039 521.586L261.391 517.349ZM260.039 521.586C259.297 521.349 258.424 520.937 257.606 520.537C256.725 520.107 255.847 519.659 254.896 519.214C252.921 518.289 251.263 517.696 250.153 517.696V513.249C252.378 513.249 254.873 514.293 256.781 515.186C257.772 515.65 258.768 516.156 259.558 516.542C260.411 516.958 261.005 517.226 261.391 517.349L260.039 521.586Z" fill="#EF7436"/>
<path d="M2036.36 278.578C2057.23 210.037 2052.55 151.676 2047.6 131.063C2080.04 131.7 2113.99 209.812 2126.91 248.787C2126.39 236.364 2132.31 201.814 2160.12 163.004C2187.93 124.194 2187.38 65.6296 2183.63 41.1987C2250.49 61.5834 2296.86 205.558 2311.68 274.997C2330.34 275.729 2344.74 223.132 2349.61 196.742C2447.77 421.702 2403.78 634.728 2213.66 651.1C2023.54 667.473 2010.27 364.254 2036.36 278.578Z" fill="#E44122"/>
<path d="M2069.11 364.436C2085.03 312.169 2081.46 267.663 2077.68 251.944C2102.42 252.431 2128.31 311.996 2138.17 341.718C2137.77 332.245 2142.28 305.898 2163.49 276.302C2184.7 246.706 2184.28 202.046 2181.42 183.416C2232.41 198.961 2267.76 308.752 2279.07 361.705C2293.3 362.264 2304.28 322.154 2307.99 302.03C2382.84 473.579 2349.3 636.028 2204.32 648.513C2059.33 660.998 2049.22 429.771 2069.11 364.436Z" fill="#FC6E04"/>
<path d="M2106.72 456.163C2118.02 419.036 2115.49 387.423 2112.81 376.257C2130.38 376.602 2148.77 418.913 2155.77 440.026C2155.49 433.296 2158.69 414.582 2173.75 393.559C2188.82 372.536 2188.52 340.813 2186.49 327.58C2222.71 338.622 2247.82 416.609 2255.85 454.223C2265.96 454.62 2273.76 426.129 2276.4 411.834C2329.57 533.69 2305.74 649.081 2202.76 657.95C2099.77 666.818 2092.59 502.572 2106.72 456.163Z" fill="#FCD204"/>
<path d="M2097.53 585.327C2097.74 564.567 2113.43 539.455 2120.86 530.543L2159.39 548.368L2166.21 608.657C2143.23 609.53 2097.32 606.088 2097.53 585.327Z" fill="#FF8548"/>
<path d="M2148.11 634.534C2138.88 621.742 2126.35 566.031 2132.9 535.712C2171.52 522.519 2238.54 510.207 2268.94 522.868C2270.29 523.428 2274.9 532.043 2279.71 540.504C2280.34 570.453 2246.9 620.311 2255.13 650.043C2256.48 654.926 2254.43 660.978 2249.55 662.319L2172.22 651.572C2168.82 648.951 2157.34 647.326 2148.11 634.534Z" fill="#FF8548"/>
<path d="M2184.39 638.191C2147.67 595.989 2113.78 618.094 2138.42 532.377L2222.3 532.378C2235.35 568.242 2215.48 673.926 2184.39 638.191Z" fill="#FFDDCC"/>
<path d="M2277.51 290.736C2243.17 308.338 2214.35 345.299 2199.26 369.662C2195.57 375.636 2198.01 383.332 2204.28 386.508L2284.07 426.94C2289.77 429.824 2296.81 428.005 2299.56 422.246C2319.45 380.596 2305.1 324.249 2292.1 295.824C2289.54 290.226 2282.99 287.928 2277.51 290.736Z" fill="#EB7033"/>
<path d="M2099.02 304.628C2125.14 321.324 2146.28 354.416 2157.09 375.966C2159.69 381.138 2157.47 387.436 2152.31 390.317L2090.69 424.716C2085.19 427.787 2078.28 425.887 2076.16 420.082C2062.7 383.235 2074.43 334.645 2085.19 309.215C2087.54 303.672 2094.05 301.451 2099.02 304.628Z" fill="#EB7033"/>
<path d="M2308.3 468.637C2307.66 520.205 2251.29 541.536 2182.1 540.677C2112.9 539.819 2063.48 519.039 2064.12 467.47C2064.76 415.902 2115.13 360.014 2184.33 360.873C2253.52 361.731 2308.94 417.068 2308.3 468.637Z" fill="#FF8548"/>
<path d="M2308.01 355.618C2283.88 323.878 2266.82 318.447 2230.71 328.66C2233.41 324.337 2275.64 274.752 2289.84 292.114C2301.01 305.774 2306.65 340.15 2308.01 355.618Z" fill="#431600"/>
<path d="M2071 361.545C2091.13 333.295 2104.81 328.596 2133.09 338.142C2131.09 334.231 2099.21 289.269 2087.41 304.712C2078.13 316.862 2072.57 347.67 2071 361.545Z" fill="#431600"/>
<path d="M2240.43 534.917C2206.6 546.244 2153.77 543.127 2121.74 532.466C2114.78 526.464 2116.59 503.224 2125.43 487.512C2127.83 483.86 2127.68 484.07 2135.73 475.739C2173.49 452.59 2205.23 463.531 2223.96 479.448C2244.14 496.609 2246.29 522.706 2240.43 534.917Z" fill="#FFDDCC"/>
<path d="M2181.37 481.986C2181.28 488.27 2174.11 490.843 2165.32 490.704C2156.54 490.566 2149.46 487.77 2149.55 481.485C2149.65 475.201 2156.88 468.654 2165.67 468.792C2174.45 468.93 2181.47 475.701 2181.37 481.986Z" fill="#431600"/>
<ellipse cx="2120.95" cy="445.199" rx="7.2414" ry="8.28949" transform="rotate(-4.51763 2120.95 445.199)" fill="#431600"/>
<ellipse cx="2218.27" cy="443.1" rx="7.2414" ry="8.28949" transform="rotate(-4.51763 2218.27 443.1)" fill="#431600"/>
<path d="M2188.53 574.751C2180.81 575.174 2138.1 546.624 2121.95 533.015C2131.4 535.759 2158.78 541.126 2179.13 541.697C2201.46 542.324 2222.17 540.386 2230.2 537.635C2230.47 537.514 2230.74 537.404 2231.01 537.303C2231.37 537.131 2231.71 536.989 2232.04 536.88C2238.08 535.393 2255.73 525.203 2264.69 530.677C2273.66 536.151 2266.15 546.763 2261.27 551.385C2261.14 550.058 2259.74 545.729 2258.2 541.103C2255.78 536.323 2247.94 536.913 2240.84 538.348C2246.25 542.255 2248.92 551.447 2249.61 557.726C2249.37 556.803 2247.15 554.759 2240.26 553.972C2222.86 552.679 2221.66 546.775 2223.93 542.653C2212.42 553.297 2196.1 574.337 2188.53 574.751Z" fill="#C72B2B"/>
<path d="M2158.34 423.524C2159.79 424.485 2162.24 426.799 2163.49 428.358" stroke="#D56A34" stroke-width="6.29103" stroke-linecap="round"/>
<path d="M2184.98 423.524C2183.54 424.485 2181.08 426.799 2179.84 428.358" stroke="#D56A34" stroke-width="6.29103" stroke-linecap="round"/>
<path d="M2270.22 647.245V649.505V656.707C2270.22 658.938 2268.43 660.755 2266.2 660.788L2201.35 661.749L2196.25 647.975L2265.86 643.174C2268.22 643.011 2270.22 644.881 2270.22 647.245Z" fill="#F3F3F3"/>
<path d="M2026.1 659.822L1997.59 572.757C1995.42 566.16 2000.34 559.378 2007.28 559.378H2167.74C2172.24 559.378 2176.22 562.333 2177.51 566.649L2201.54 646.734C2202.92 651.329 2207.31 654.343 2212.09 653.976L2270.22 649.504V657.028C2270.22 659.128 2268.63 660.884 2266.54 661.09L2207.98 666.85H2035.8C2031.39 666.85 2027.48 664.015 2026.1 659.822Z" fill="#575757"/>
<path d="M2112.68 616.121C2117.84 626.102 2116.96 634.753 2108.08 634.753C2102.92 634.753 2088.58 630.095 2080.54 616.121C2075.69 607.688 2076.25 597.488 2085.13 597.488C2094 597.488 2106.48 604.143 2112.68 616.121Z" fill="#F3F3F3"/>
<path d="M2074.96 590.571C2077.32 591.096 2078.83 591.631 2080.71 593.01C2084.33 595.667 2086.5 600.362 2088.81 604.401" stroke="#F3F3F3" stroke-width="5.76678" stroke-linecap="round"/>
<path d="M2208.15 635.393C2200.02 618.092 2226.07 600.976 2241.54 595.733C2252.28 590.82 2253.59 573.452 2253.59 568.472C2253.59 564.55 2255.79 568.689 2250.94 559.232C2250.82 558.982 2250.9 558.664 2251.15 558.526L2271.16 547.24C2274.91 545.58 2270.16 520.608 2291.34 559.822C2317.81 608.839 2278.23 631.382 2276.92 632.431C2267.48 639.984 2248.93 647.11 2240.49 647.11C2238.39 647.11 2216.27 652.693 2208.15 635.393Z" fill="#FF8548"/>
<path d="M2253.23 566.979C2255.51 572.396 2256.43 577.044 2250.35 585.852C2242.75 596.861 2220.99 607.87 2217.06 610.229C2207.93 615.71 2205.63 625.349 2207.62 632.772C2208.87 637.429 2211.29 640.898 2218.37 644.306" stroke="#EF7436" stroke-width="4.19402" stroke-linecap="round"/>
<g opacity="0.45" filter="url(#filter0_f_143_1098)">
<path d="M2103.56 559.639C2103.82 558.852 2112.73 539.193 2119.29 532.64C2089.58 525.126 2039.55 492.482 2077.08 422.023C2071.49 404.635 2064.24 359.741 2079.97 319.269C2088.88 301.182 2090.19 289.125 2121.91 322.677C2133.97 335.521 2150.74 362.782 2151.27 364.879C2158.52 362.52 2179.21 358.745 2203.95 362.52C2211.91 350.287 2234.78 320.056 2262.67 296.988C2280.76 283.62 2292.81 280.999 2302.78 323.201C2312.74 365.403 2309.07 408.392 2297.27 424.906C2310.38 447.099 2323.48 498.039 2271.06 524.252C2289.91 557.473 2333.44 610.753 2256.38 643.519" stroke="#F3F3F3" stroke-width="2.09701"/>
</g>
<defs>
<filter id="filter0_f_143_1098" x="2060.99" y="285.597" width="250.678" height="360.512" filterUnits="userSpaceOnUse" color-interpolation-filters="sRGB">
<feFlood flood-opacity="0" result="BackgroundImageFix"/>
<feBlend mode="normal" in="SourceGraphic" in2="BackgroundImageFix" result="shape"/>
<feGaussianBlur stdDeviation="0.812591" result="effect1_foregroundBlur_143_1098"/>
</filter>
</defs>
</svg>
