<svg width="1246" height="433" viewBox="0 0 1246 433" fill="none" xmlns="http://www.w3.org/2000/svg">
<circle cx="216.029" cy="216.029" r="216.029" fill="white"/>
<path d="M214.245 220.5H171.533V215.886H189.986V211.221H176.768V194.894H209.113V199.455H182.522V206.556H209.528V211.221H195.74V215.886H214.245V220.5ZM209.113 239.989H203.411V228.793H176.25V224.18H209.113V239.989ZM234.719 204.224C234.719 207.161 235.169 210.003 236.067 212.75C236.983 215.48 238.313 217.899 240.058 220.007C241.821 222.115 243.911 223.696 246.33 224.75L242.857 229.363C240.266 228.102 238.028 226.288 236.145 223.921C234.279 221.554 232.836 218.806 231.817 215.679C230.763 218.997 229.277 221.917 227.359 224.439C225.458 226.962 223.195 228.897 220.568 230.245L216.94 225.58C219.411 224.422 221.536 222.729 223.316 220.5C225.113 218.271 226.478 215.74 227.411 212.906C228.361 210.072 228.845 207.178 228.862 204.224V196.76H234.719V204.224ZM256.697 239.886H250.995V212.776H241.147V208.111H250.995V192.976H256.697V239.886Z" fill="#FF6779"/>
<circle cx="1029.03" cy="216.029" r="216.029" fill="#FF6779"/>
<path d="M1001.33 227.394H995.529V193.027H1001.33V227.394ZM1002.63 238.901H970.338V224.284H976.143V234.236H1002.63V238.901ZM980.083 203.913C980.083 205.779 980.523 207.576 981.404 209.303C982.303 211.014 983.616 212.535 985.344 213.865C987.089 215.178 989.171 216.18 991.59 216.871L988.843 221.433C986.165 220.638 983.849 219.454 981.897 217.882C979.944 216.292 978.415 214.418 977.309 212.258C976.238 214.608 974.709 216.647 972.722 218.375C970.752 220.085 968.403 221.364 965.673 222.21L962.874 217.701C965.31 216.958 967.383 215.886 969.094 214.487C970.822 213.07 972.126 211.455 973.007 209.64C973.888 207.826 974.329 205.917 974.329 203.913V203.291H964.325V198.729H974.329V193.235H980.134V198.729H990.087V203.291H980.083V203.913ZM1047.21 227.394H1041.4V193.027H1047.21V227.394ZM1048.5 238.901H1016.21V224.284H1022.02V234.236H1048.5V238.901ZM1025.96 203.913C1025.96 205.779 1026.4 207.576 1027.28 209.303C1028.18 211.014 1029.49 212.535 1031.22 213.865C1032.96 215.178 1035.04 216.18 1037.46 216.871L1034.72 221.433C1032.04 220.638 1029.72 219.454 1027.77 217.882C1025.82 216.292 1024.29 214.418 1023.18 212.258C1022.11 214.608 1020.58 216.647 1018.6 218.375C1016.63 220.085 1014.28 221.364 1011.55 222.21L1008.75 217.701C1011.18 216.958 1013.26 215.886 1014.97 214.487C1016.7 213.07 1018 211.455 1018.88 209.64C1019.76 207.826 1020.2 205.917 1020.2 203.913V203.291H1010.2V198.729H1020.2V193.235H1026.01V198.729H1035.96V203.291H1025.96V203.913ZM1096.76 220.552H1054.05V215.99H1072.45V211.688H1058.15V207.023H1064.31V198.988H1057.89V194.375H1092.82V198.988H1086.4V207.023H1092.56V211.688H1078.21V215.99H1096.76V220.552ZM1091.58 239.264H1059.08V224.232H1091.58V239.264ZM1064.78 234.599H1085.98V228.741H1064.78V234.599ZM1080.59 207.023V198.988H1070.07V207.023H1080.59Z" fill="white"/>
<line x1="586.539" y1="215.68" x2="658.726" y2="215.68" stroke="#525252" stroke-width="8.80326"/>
<line x1="622.632" y1="180.467" x2="622.632" y2="252.653" stroke="#525252" stroke-width="8.80326"/>
</svg>
